<svg viewBox="0 0 20 20" fill="none" xmlns="http://www.w3.org/2000/svg"><path d="M10 6.147a3.853 3.853 0 100 7.707 3.853 3.853 0 000-7.707zm0 6.356a2.503 2.503 0 11-.001-5.006 2.503 2.503 0 010 5.006zM14.005 6.904a.898.898 0 100-1.797.898.898 0 000 1.797z" fill="#000"/><path d="M17.11 5.092A3.838 3.838 0 0014.918 2.9a5.506 5.506 0 00-1.822-.35c-.803-.035-1.057-.045-3.092-.045s-2.296 0-3.091.045a5.462 5.462 0 00-1.82.35 3.833 3.833 0 00-2.194 2.193 5.488 5.488 0 00-.35 1.822c-.035.802-.046 1.056-.046 3.092 0 2.035 0 2.294.046 3.091.013.624.13 1.239.35 1.823a3.841 3.841 0 002.195 2.193 5.485 5.485 0 001.82.375c.803.035 1.057.046 3.092.046s2.296 0 3.092-.046a5.511 5.511 0 001.821-.349 3.843 3.843 0 002.195-2.194c.219-.583.336-1.198.349-1.822.035-.801.046-1.055.046-3.091 0-2.036 0-2.295-.046-3.092a5.483 5.483 0 00-.351-1.848zm-1.014 7.944c-.006.48-.093.956-.26 1.407a2.491 2.491 0 01-1.426 1.425 4.153 4.153 0 01-1.392.26c-.791.036-1.015.045-3.045.045-2.031 0-2.239 0-3.046-.045a4.133 4.133 0 01-1.39-.26 2.488 2.488 0 01-1.433-1.425 4.233 4.233 0 01-.259-1.391c-.036-.792-.044-1.015-.044-3.045 0-2.031 0-2.239.044-3.046.005-.48.093-.956.26-1.406a2.488 2.488 0 011.432-1.427 4.175 4.175 0 011.39-.259c.793-.036 1.016-.046 3.046-.046 2.031 0 2.24 0 3.045.046.476.006.946.094 1.392.26a2.491 2.491 0 011.427 1.426c.163.446.251.916.259 1.39.036.793.045 1.016.045 3.047 0 2.03 0 2.248-.036 3.045h-.01v-.001z" fill="currentColor"/></svg>