<svg viewBox="0 0 30 30" fill="none" xmlns="http://www.w3.org/2000/svg"><path d="M15 21.25l1.25-2.5v-6.428C18.401 11.764 20 9.822 20 7.5c0-2.758-2.242-5-5-5s-5 2.242-5 5c0 2.322 1.599 4.264 3.75 4.822v6.428l1.25 2.5zM12.5 7.5C12.5 6.121 13.621 5 15 5s2.5 1.121 2.5 2.5S16.379 10 15 10a2.502 2.502 0 01-2.5-2.5z" fill="#000"/><path d="M20.334 13.204l-.666 2.41C22.905 16.509 25 18.23 25 20c0 2.365-4.106 5-10 5S5 22.365 5 20c0-1.77 2.094-3.491 5.334-4.387l-.666-2.41C5.246 14.425 2.5 17.029 2.5 20c0 4.205 5.491 7.5 12.5 7.5s12.5-3.295 12.5-7.5c0-2.971-2.746-5.575-7.166-6.796z" fill="currentColor"/></svg>