<svg viewBox="0 0 20 20" fill="none" xmlns="http://www.w3.org/2000/svg"><path d="M4.23 7.88c0-.647.114-1.26.337-1.832.214-.555.53-1.064.935-1.501a6.345 6.345 0 011.37-1.108 6.26 6.26 0 011.668-.703 7.142 7.142 0 011.82-.234c.95 0 1.833.2 2.652.6a5.017 5.017 0 011.993 1.746c.512.762.766 1.625.766 2.586 0 .577-.057 1.141-.173 1.693a6.9 6.9 0 01-.538 1.594 5.503 5.503 0 01-.902 1.347 3.934 3.934 0 01-1.306.929 4.134 4.134 0 01-1.704.347c-.408 0-.815-.096-1.216-.288-.402-.192-.69-.455-.864-.793l-.255 1.015c-.106.442-.178.727-.21.856-.033.128-.095.343-.185.64-.06.219-.139.433-.234.64l-.287.562a6.65 6.65 0 01-.415.698c-.15.218-.337.48-.56.78l-.124.043-.082-.09c-.09-.944-.135-1.509-.135-1.695 0-.553.066-1.173.196-1.861.127-.688.329-1.552.6-2.591.27-1.038.425-1.65.467-1.83-.19-.39-.287-.897-.287-1.522 0-.5.155-.967.468-1.407.313-.438.71-.658 1.19-.658.367 0 .652.122.856.366.205.244.305.55.305.924 0 .397-.132.971-.397 1.722-.265.752-.397 1.313-.397 1.685 0 .378.135.693.405.94a1.4 1.4 0 00.983.375c.33 0 .636-.075.92-.226a2.05 2.05 0 00.707-.61 5.104 5.104 0 00.848-1.855 10 10 0 00.18-1c.04-.316.058-.614.058-.897 0-1.04-.33-1.85-.986-2.43-.659-.58-1.517-.868-2.573-.868-1.2 0-2.205.389-3.009 1.168-.805.776-1.21 1.764-1.21 2.961 0 .265.04.52.116.766.074.246.155.442.242.587.087.142.169.282.243.41.075.128.114.22.114.275 0 .168-.044.387-.133.658-.093.271-.202.406-.334.406-.012 0-.064-.01-.154-.028a1.84 1.84 0 01-.816-.505 2.64 2.64 0 01-.549-.851 5.821 5.821 0 01-.293-.974 4.07 4.07 0 01-.11-.961z" fill="currentColor"/></svg>