<svg viewBox="0 0 31 30" fill="none" xmlns="http://www.w3.org/2000/svg"><path d="M22.5 23.125a1.872 1.872 0 001.875-1.875 1.872 1.872 0 00-1.875-1.875 1.872 1.872 0 00-1.875 1.875c0 1.038.837 1.875 1.875 1.875zm1.875-11.25H21.25V15h5.575l-2.45-3.125zM7.5 23.125a1.872 1.872 0 001.875-1.875A1.872 1.872 0 007.5 19.375a1.872 1.872 0 00-1.875 1.875c0 1.038.838 1.875 1.875 1.875zM25 10l3.75 5v6.25h-2.5A3.745 3.745 0 0122.5 25a3.745 3.745 0 01-3.75-3.75h-7.5A3.745 3.745 0 017.5 25a3.745 3.745 0 01-3.75-3.75h-2.5V7.5c0-1.388 1.112-2.5 2.5-2.5h17.5v5H25zM3.75 7.5v11.25h.95a3.766 3.766 0 012.8-1.25c1.113 0 2.113.488 2.8 1.25h8.45V7.5h-15zm8.75 1.25l4.375 4.375L12.5 17.5v-3.125H6.25v-2.5h6.25V8.75z" fill="currentColor"/></svg>