<svg viewBox="0 0 30 30" fill="none" xmlns="http://www.w3.org/2000/svg"><path d="M8.145 17.904l-1.862 8.065a1.247 1.247 0 001.91 1.321L15 22.753l6.806 4.537a1.25 1.25 0 001.896-1.383l-2.286-8 5.67-5.102a1.25 1.25 0 00-.737-2.175l-7.127-.568-3.083-6.826a1.248 1.248 0 00-2.278 0l-3.084 6.826-7.126.567a1.25 1.25 0 00-.773 2.141l5.267 5.134zm3.566-5.408a1.247 1.247 0 001.04-.732L15 6.788l2.249 4.976a1.248 1.248 0 001.04.732l4.965.394-4.089 3.68c-.355.32-.496.813-.366 1.273l1.566 5.48-4.67-3.113a1.244 1.244 0 00-1.386 0l-4.88 3.254 1.312-5.683a1.25 1.25 0 00-.345-1.175L6.6 12.904l5.112-.408z" fill="currentColor"/></svg>