<svg width="25" height="25" viewBox="0 0 25 25" fill="none" xmlns="http://www.w3.org/2000/svg"><g clip-path="url(#clip0_4_79)"><path d="M18.75 2.578C16.914 1.445 14.805.781 12.5.781v1.797h6.25z" fill="#ED1C24"/><path d="M12.5 4.375h8.438a13.727 13.727 0 00-2.188-1.797H12.5v1.797z" fill="#fff"/><path d="M12.5 6.172h9.883c-.43-.664-.899-1.25-1.406-1.797H12.5v1.797z" fill="#ED1C24"/><path d="M12.5 7.969h10.82a13 13 0 00-.937-1.797H12.5v1.797z" fill="#fff"/><path d="M12.5 9.766h11.406a13.788 13.788 0 00-.586-1.797H12.5v1.797z" fill="#ED1C24"/><path d="M12.5 11.602h11.68c-.04-.625-.157-1.211-.274-1.797H12.5v1.797z" fill="#fff"/><path d="M24.18 11.602H12.5v.898H.781c0 .313 0 .586.04.898H24.18c.039-.312.039-.585.039-.898 0-.313 0-.625-.04-.898z" fill="#ED1C24"/><path d="M1.094 15.195h22.812a9.067 9.067 0 00.274-1.797H.82c.04.586.157 1.211.274 1.797z" fill="#fff"/><path d="M1.68 16.992h21.64c.235-.586.43-1.172.586-1.797H1.094c.156.625.351 1.211.586 1.797z" fill="#ED1C24"/><path d="M2.617 18.79h19.766c.351-.587.664-1.173.937-1.798H1.68c.273.625.586 1.211.937 1.797z" fill="#fff"/><path d="M4.023 20.586h16.954a12.378 12.378 0 001.406-1.797H2.617c.39.664.899 1.25 1.406 1.797z" fill="#ED1C24"/><path d="M6.21 22.383h12.58c.82-.508 1.523-1.133 2.187-1.797H4.023a11.954 11.954 0 002.188 1.797z" fill="#fff"/><path d="M12.5 24.219c2.305 0 4.453-.664 6.29-1.836H6.21a11.622 11.622 0 006.29 1.836z" fill="#ED1C24"/><path d="M6.25 2.578a12.484 12.484 0 00-2.227 1.797 10.168 10.168 0 00-1.406 1.797c-.351.586-.703 1.172-.937 1.797-.235.586-.43 1.172-.586 1.797a9.069 9.069 0 00-.274 1.796c-.039.313-.039.626-.039.938H12.5V.781c-2.305 0-4.414.664-6.25 1.797z" fill="#428BC1"/><path d="M9.766 1.172l.195.586h.586l-.469.39.156.586-.468-.351-.47.351.157-.586-.469-.39h.586l.196-.586zm1.562 2.344l.195.586h.586l-.468.39.156.586-.469-.351-.469.351.157-.586-.47-.39h.587l.195-.586zm-3.125 0l.195.586h.586l-.468.39.156.586-.469-.351-.469.351.157-.586-.47-.39h.587l.195-.586zM9.766 5.86l.195.585h.586l-.469.39.156.587-.468-.352-.47.352.157-.586-.469-.39h.586l.196-.587zm-3.126 0l.196.585h.586l-.469.39.156.587-.468-.352-.47.352.157-.586-.469-.39h.586l.196-.587zm-3.124 0l.195.585h.586l-.469.39.156.587-.468-.352-.47.352.157-.586-.469-.39h.586l.196-.587zm7.812 2.343l.195.586h.586l-.468.39.156.587-.469-.352-.469.352.157-.586-.47-.39h.587l.195-.587zm-3.125 0l.195.586h.586l-.468.39.156.587-.469-.352-.469.352.157-.586-.47-.39h.587l.195-.587zm-3.125 0l.195.586h.586l-.468.39.156.587-.469-.352-.469.352.157-.586-.47-.39h.587l.195-.587zm4.688 2.344l.195.586h.586l-.469.39.156.586-.468-.351-.47.351.157-.586-.469-.39h.586l.196-.586zm-3.126 0l.196.586h.586l-.469.39.156.586-.468-.351-.47.351.157-.586-.469-.39h.586l.196-.586zm-3.124 0l.195.586h.586l-.469.39.156.586-.468-.351-.47.351.157-.586-.469-.39h.586l.196-.586zM4.61 5.078l.468-.351.469.351-.195-.586.468-.39h-.586l-.156-.586-.195.586h-.547l.469.351-.196.625zM1.484 9.766l.47-.352.468.352-.195-.586.468-.39h-.547l-.195-.587-.195.586h-.39c0 .04-.04.078-.04.117l.313.235-.157.625z" fill="#fff"/></g><defs><clipPath id="clip0_4_79"><path fill="#fff" d="M0 0h25v25H0z"/></clipPath></defs></svg>